<?xml version="1.0" encoding="UTF-8"?>
<!DOCTYPE svg PUBLIC "-//W3C//DTD SVG 1.1//EN" "http://www.w3.org/Graphics/SVG/1.1/DTD/svg11.dtd">
<svg xmlns="http://www.w3.org/2000/svg" xml:space="preserve" width="83px" height="83px" version="1.1" style="shape-rendering:geometricPrecision; text-rendering:geometricPrecision; image-rendering:optimizeQuality; fill-rule:evenodd; clip-rule:evenodd"
viewBox="0 0 45430 45430"
 xmlns:xlink="http://www.w3.org/1999/xlink">
 <defs>
  <style type="text/css">
   <![CDATA[
    .fil0 {fill:none}
    .fil1 {fill:#2B2A29}
   ]]>
  </style>
 </defs>
 <g>
  <circle class="fil0" cx="22715" cy="22715" r="22715"/>
  <path class="fil1" d="M23890 11838l8316 3114c448,167 415,526 -44,724l-8768 3787c-459,199 -1189,197 -1623,-4l-8316 -3841c-434,-201 -428,-560 45,-725l8767 -3060c472,-164 1175,-162 1623,5zm-8469 14549c-415,-705 -1118,-1060 -1570,-794 -453,267 -483,1055 -68,1759 413,704 1117,1059 1570,793 452,-267 483,-1054 68,-1758zm7407 -11795c817,-3 1481,338 1483,762 1,424 -661,773 -1476,774 -816,1 -1483,-343 -1485,-765 -1,-422 660,-769 1478,-771zm3339 8493c417,-704 1119,-1059 1572,-792 454,267 483,1055 69,1758 -415,703 -1118,1059 -1573,792 -450,-266 -479,-1052 -68,-1758zm3575 2909c418,-704 1120,-1059 1573,-792 454,267 482,1055 68,1758 -415,703 -1118,1059 -1572,792 -451,-265 -480,-1052 -69,-1758zm-10076 -3021c-415,-704 -1119,-1059 -1570,-793 -453,267 -484,1054 -69,1759 414,703 1118,1058 1571,792 452,-266 482,-1054 68,-1758zm-2122 1622c-415,-704 -1119,-1059 -1571,-793 -452,267 -483,1054 -68,1759 414,704 1118,1059 1571,792 451,-266 483,-1054 68,-1758zm6526 -4259l8964 -4133c469,-217 852,85 852,670l0 11188c0,585 -383,1240 -852,1456l-8964 4134c-468,215 -851,-86 -851,-671l0 -11188c0,-585 383,-1239 851,-1456zm-2709 0l-8964 -4133c-469,-217 -852,85 -852,670l0 11188c0,585 383,1240 852,1456l8964 4134c468,215 852,-86 852,-671l0 -11188c0,-585 -384,-1239 -852,-1456z"/>
 </g>
</svg>


