<?xml version="1.0" encoding="UTF-8"?>
<!DOCTYPE svg PUBLIC "-//W3C//DTD SVG 1.1//EN" "http://www.w3.org/Graphics/SVG/1.1/DTD/svg11.dtd">
<svg xmlns="http://www.w3.org/2000/svg" xml:space="preserve" width="83px" height="83px" version="1.1" style="shape-rendering:geometricPrecision; text-rendering:geometricPrecision; image-rendering:optimizeQuality; fill-rule:evenodd; clip-rule:evenodd"
viewBox="0 0 180 180"
 xmlns:xlink="http://www.w3.org/1999/xlink">
 <defs>
  <style type="text/css">
   <![CDATA[
    .fil0 {fill:none}
    .fil1 {fill:#2B2A29}
   ]]>
  </style>
 </defs>
 <g>
  <circle class="fil0" cx="90" cy="90" r="90"/>
  <g>
   <path class="fil1" d="M124 104l0 -3c-2,-2 -5,-8 -6,-10 -2,-3 -4,-6 -6,-9 -2,-4 -4,-7 -6,-10 -2,-3 -4,-7 -8,-7l-16 0c-5,0 -7,5 -9,8 -2,3 -4,6 -6,9 -2,3 -11,17 -11,20 0,3 3,6 5,6l1 0c5,0 7,-8 10,-12l-6 21 9 0 0 24c0,4 2,8 6,8l1 0c6,0 6,-6 6,-12 0,-6 0,-12 0,-18 1,0 1,-1 2,-1l0 0c1,0 1,0 1,1 0,8 -2,30 6,30l2 0c3,0 5,-4 5,-7l0 -25 9 0 -5 -20c2,3 5,11 9,11l2 0c2,0 3,-3 5,-4z"/>
   <path class="fil1" d="M75 44l0 2c0,7 7,14 14,14l2 0c6,0 13,-8 13,-14l0 -1c0,-8 -7,-15 -15,-15l0 0c-7,0 -14,7 -14,14z"/>
  </g>
 </g>
</svg>


