<?xml version="1.0" encoding="UTF-8"?>
<!DOCTYPE svg PUBLIC "-//W3C//DTD SVG 1.1//EN" "http://www.w3.org/Graphics/SVG/1.1/DTD/svg11.dtd">
<svg xmlns="http://www.w3.org/2000/svg" xml:space="preserve" width="115px" height="115px" version="1.1" style="shape-rendering:geometricPrecision; text-rendering:geometricPrecision; image-rendering:optimizeQuality; fill-rule:evenodd; clip-rule:evenodd"
viewBox="0 0 360 360"
 xmlns:xlink="http://www.w3.org/1999/xlink">
 <defs>
  <style type="text/css">
   <![CDATA[
    .fil0 {fill:none}
    .fil2 {fill:#FEFEFE}
    .fil1 {fill:#2B2A29}
    .fil3 {fill:#FF4242;fill-rule:nonzero}
   ]]>
  </style>
 </defs>
 <g>
  <circle class="fil0" cx="180" cy="180" r="180"/>
  <g>
   <path class="fil1" d="M226 253c27,13 47,35 57,63l3 8 -7 5c-29,20 -64,31 -99,31 -36,0 -70,-11 -99,-31l-8 -5 3 -8c11,-28 31,-50 57,-63 -29,-13 -51,-40 -60,-72 -13,-2 -22,-14 -22,-27 0,-13 8,-23 19,-27 1,-27 13,-53 32,-72 21,-21 49,-32 78,-32 29,0 57,11 78,32 19,19 30,45 32,72 11,4 19,14 19,27 0,13 -10,25 -22,27 -9,32 -31,59 -61,72z"/>
   <path class="fil2" d="M79 138c1,0 2,0 3,0 -1,-2 -1,-3 -1,-5 0,-27 11,-51 29,-69 18,-18 43,-29 70,-29 27,0 52,11 70,29 17,18 28,42 28,69 0,2 0,3 0,5 1,0 2,0 3,0 9,0 16,7 16,16 0,9 -7,17 -16,17 -1,0 -3,-1 -4,-1 -7,41 -39,74 -80,81 1,1 1,1 1,2l2 4c34,7 61,31 72,63 -26,18 -58,29 -92,29 -34,0 -66,-11 -93,-29 12,-32 39,-56 73,-63l2 -4c0,-1 0,-1 0,-2 -40,-7 -73,-40 -79,-81 -1,0 -3,1 -4,1 -9,0 -17,-8 -17,-17 0,-9 8,-16 17,-16z"/>
   <g>
    <path class="fil3" d="M128 134c-2,3 -5,4 -8,3 -3,-1 -4,-4 -3,-7 1,-4 3,-6 5,-9 2,-3 5,-5 8,-6l0 -1c7,-4 15,-4 23,-2 0,0 0,0 0,0 7,2 14,7 18,14 1,3 1,6 -2,8 -3,1 -7,0 -8,-2 -3,-5 -7,-8 -11,-9l0 0c-5,-1 -10,-1 -14,2l0 0c-2,1 -4,2 -5,4 -1,1 -3,3 -3,5z"/>
    <path class="fil3" d="M232 134c1,3 5,4 8,3 3,-1 4,-4 3,-7 -1,-4 -3,-6 -5,-9 -2,-3 -5,-5 -8,-6l0 -1c-8,-4 -16,-4 -23,-2 0,0 0,0 0,0 -8,2 -14,7 -18,14 -2,3 -1,6 2,8 3,1 6,0 8,-2 3,-5 6,-8 11,-9l0 0c5,-1 10,-1 14,2l0 0c2,1 4,2 5,4 1,1 2,3 3,5z"/>
   </g>
  </g>
 </g>
</svg>


