<?xml version="1.0" encoding="UTF-8"?>
<!DOCTYPE svg PUBLIC "-//W3C//DTD SVG 1.1//EN" "http://www.w3.org/Graphics/SVG/1.1/DTD/svg11.dtd">
<svg xmlns="http://www.w3.org/2000/svg" xml:space="preserve" width="115px" height="115px" version="1.1" style="shape-rendering:geometricPrecision; text-rendering:geometricPrecision; image-rendering:optimizeQuality; fill-rule:evenodd; clip-rule:evenodd"
viewBox="0 0 346 346"
 xmlns:xlink="http://www.w3.org/1999/xlink">
 <defs>
  <style type="text/css">
   <![CDATA[
    .fil0 {fill:none}
    .fil2 {fill:#FEFEFE}
    .fil1 {fill:#2B2A29}
    .fil3 {fill:#FF4242}
   ]]>
  </style>
 </defs>
 <g>
  <circle class="fil0" cx="173" cy="173" r="173"/>
  <g>
   <path class="fil1" d="M218 244c25,11 45,33 54,59l3 8 -7 5c-28,20 -61,30 -95,30 -34,0 -67,-10 -95,-30l-8 -5 3 -8c10,-26 30,-48 55,-59 -28,-14 -50,-39 -58,-70 -12,-2 -21,-13 -21,-26 0,-12 8,-22 18,-26 2,-26 13,-51 31,-69 20,-20 47,-31 75,-31 28,0 55,11 75,31 18,18 29,43 31,69 10,4 18,14 18,26 0,13 -9,24 -22,26 -8,31 -29,56 -57,70z"/>
   <path class="fil2" d="M76 132c1,0 2,0 2,0 0,-1 0,-2 0,-4 0,-26 11,-50 28,-67 17,-17 41,-27 67,-27 26,0 50,10 67,27 17,17 27,41 27,67 0,2 0,3 0,4 1,0 2,0 3,0 9,0 16,7 16,16 0,9 -7,16 -16,16 -1,0 -3,0 -4,-1 -6,40 -37,71 -76,78 0,1 0,1 0,2l2 4c33,7 59,30 70,60 -26,18 -56,28 -89,28 -33,0 -64,-10 -89,-28 11,-30 37,-53 69,-60l2 -4c1,-1 1,-1 1,-2 -39,-7 -70,-38 -76,-78 -2,1 -3,1 -4,1 -9,0 -16,-7 -16,-16 0,-9 7,-16 16,-16z"/>
   <g>
    <path class="fil3" d="M174 187c4,-7 25,-7 40,0 4,1 28,15 22,21 -5,3 -12,-4 -31,-6 -8,0 -17,-1 -24,-1 -8,-1 -9,-9 -7,-14z"/>
    <path class="fil3" d="M172 187c-5,-7 -25,-7 -40,0 -4,1 -28,15 -22,21 4,3 12,-4 31,-6 7,0 17,-1 24,-1 8,-1 9,-9 7,-14z"/>
   </g>
  </g>
 </g>
</svg>


