<?xml version="1.0" encoding="UTF-8"?>
<!DOCTYPE svg PUBLIC "-//W3C//DTD SVG 1.1//EN" "http://www.w3.org/Graphics/SVG/1.1/DTD/svg11.dtd">
<svg xmlns="http://www.w3.org/2000/svg" xml:space="preserve" width="115px" height="115px" version="1.1" style="shape-rendering:geometricPrecision; text-rendering:geometricPrecision; image-rendering:optimizeQuality; fill-rule:evenodd; clip-rule:evenodd"
viewBox="0 0 214 214"
 xmlns:xlink="http://www.w3.org/1999/xlink">
 <defs>
  <style type="text/css">
   <![CDATA[
    .fil2 {fill:none}
    .fil4 {fill:#FEFEFE}
    .fil3 {fill:#2B2A29}
    .fil1 {fill:#FF4242}
    .fil0 {fill:#FF4242}
   ]]>
  </style>
   <clipPath id="id0">
    <path d="M107 0c59,0 107,48 107,107 0,59 -48,107 -107,107 -59,0 -107,-48 -107,-107 0,-59 48,-107 107,-107z"/>
   </clipPath>
 </defs>
 <g>
  <g style="clip-path:url(#id0)">
   <g>
    <rect class="fil0" transform="matrix(0.866025 -0.5 0.5 0.866025 -70.1078 84.9862)" width="278.017" height="17.5796"/>
    <g>
     <path class="fil1" d="M-57 106c80,-46 161,-93 241,-139 3,5 6,10 9,15 -81,47 -161,93 -241,139 -3,-5 -6,-10 -9,-15z"/>
     <path class="fil1" d="M-44 127c80,-46 161,-93 241,-139 3,5 6,10 9,15 -81,47 -161,93 -241,139 -3,-5 -6,-10 -9,-15z"/>
     <path class="fil1" d="M-31 148c80,-46 161,-93 241,-139 3,5 6,10 9,15 -80,47 -161,93 -241,139 -3,-5 -6,-10 -9,-15z"/>
     <path class="fil1" d="M-18 169c81,-46 161,-93 241,-139 3,5 6,10 9,15 -80,47 -161,93 -241,139 -3,-5 -6,-10 -9,-15z"/>
     <path class="fil1" d="M-5 190c81,-46 161,-93 241,-139 3,5 6,10 9,15 -80,47 -161,93 -241,139 -3,-5 -6,-10 -9,-15z"/>
     <path class="fil1" d="M9 211c80,-46 160,-93 240,-139 3,5 6,10 9,15 -80,47 -160,93 -241,139 -3,-5 -6,-10 -8,-15z"/>
     <path class="fil1" d="M22 232c80,-46 160,-93 240,-139 3,5 6,10 9,15 -80,47 -160,93 -241,139 -3,-5 -5,-10 -8,-15z"/>
    </g>
    <rect class="fil0" transform="matrix(0.866025 -0.5 0.5 0.866025 34.7184 252.969)" width="278.017" height="17.5796"/>
   </g>
  </g>
  <path class="fil2" d="M107 0c59,0 107,48 107,107 0,59 -48,107 -107,107 -59,0 -107,-48 -107,-107 0,-59 48,-107 107,-107z"/>
  <path class="fil3" d="M135 151c15,7 28,20 34,37l2 5 -5 3c-17,12 -38,18 -59,18 -21,0 -41,-6 -59,-18l-4 -3 2 -5c6,-17 18,-30 33,-37 -17,-8 -30,-24 -35,-43 -8,-2 -14,-8 -14,-17 0,-7 5,-13 12,-15 1,-17 7,-32 19,-43 12,-13 29,-19 46,-19 18,0 34,6 46,19 12,11 19,26 20,43 6,2 11,8 11,15 0,9 -6,15 -13,17 -5,19 -19,35 -36,43z"/>
  <path class="fil4" d="M47 82c1,0 1,0 2,0 -1,-1 -1,-2 -1,-3 0,-16 7,-30 18,-41 10,-11 25,-17 41,-17 16,0 31,6 42,17 10,11 17,25 17,41 0,1 0,2 0,3 0,0 1,0 1,0 6,0 10,4 10,10 0,5 -4,9 -10,9 -1,0 -1,0 -2,0 -4,25 -23,44 -48,48 1,1 1,1 1,2l1 2c20,4 36,19 43,37 -16,11 -34,18 -55,18 -20,0 -39,-7 -55,-18 7,-18 23,-33 43,-37l1 -2c0,-1 1,-1 1,-2 -25,-4 -44,-23 -48,-48 0,0 -1,0 -2,0 -5,0 -10,-4 -10,-9 0,-6 5,-10 10,-10z"/>
 </g>
</svg>



