<?xml version="1.0" encoding="UTF-8"?>
<!DOCTYPE svg PUBLIC "-//W3C//DTD SVG 1.1//EN" "http://www.w3.org/Graphics/SVG/1.1/DTD/svg11.dtd">
<svg xmlns="http://www.w3.org/2000/svg" xml:space="preserve" width="231px" height="62px" version="1.1" style="shape-rendering:geometricPrecision; text-rendering:geometricPrecision; image-rendering:optimizeQuality; fill-rule:evenodd; clip-rule:evenodd"
viewBox="0 0 11581 3100"
 xmlns:xlink="http://www.w3.org/1999/xlink">
 <defs>
  <style type="text/css">
   <![CDATA[
    .fil0 {fill:#24211d}
    .fil1 {fill:#FF4242}
   ]]>
  </style>
 </defs>
 <g>
  <g>
   <path class="fil0" d="M1781 2312c272,169 485,404 594,707 33,78 -54,106 -83,56 -139,-302 -466,-659 -771,-725 -29,-7 -46,-60 19,-74 375,-84 669,-382 747,-760 2,-11 15,-29 44,-27 90,1 164,-72 165,-162 0,-90 -72,-164 -163,-165 -27,-2 -26,-26 -25,-42 2,-271 -106,-517 -282,-696 -385,-391 -1055,-391 -1440,0 -176,179 -284,425 -282,696 0,16 2,40 -25,42 -91,1 -164,75 -163,165 1,90 74,163 165,162 29,-2 41,16 44,27 78,378 372,676 747,760 65,14 48,67 19,74 -306,66 -632,423 -771,725 -30,50 -116,22 -83,-56 108,-303 322,-538 594,-707 -296,-135 -521,-397 -605,-716 -128,-26 -225,-138 -226,-273 -1,-123 78,-228 189,-266 12,-271 123,-525 314,-719 431,-437 1175,-437 1606,0 190,194 302,448 314,719 111,38 190,143 189,266 -1,135 -98,247 -226,273 -85,319 -309,581 -605,716z"/>
   <path class="fil0" d="M3242 875l-167 430c-4,9 -8,16 -14,23 -14,13 -30,19 -48,19 -19,0 -35,-7 -48,-20 -13,-13 -20,-29 -20,-47 0,-11 2,-21 6,-29l468 -1204c4,-10 9,-19 18,-27 13,-13 28,-20 47,-20 18,0 34,7 48,20 8,8 13,17 17,27l468 1204c4,8 5,18 5,29 0,18 -6,34 -19,47 -13,13 -29,20 -48,20 -18,0 -34,-6 -47,-19 -6,-7 -12,-14 -15,-23l-168 -430 -483 0zm431 -134l-189 -488 -190 488 379 0zm781 587c-13,13 -29,19 -48,19 -20,0 -36,-6 -48,-19 -4,-4 -8,-9 -11,-16l-374 -814c-3,-8 -5,-17 -5,-27 0,-18 7,-34 20,-47 13,-13 29,-20 47,-20 19,0 35,7 48,19 5,5 9,11 13,18l310 677 309 -677c4,-7 9,-13 14,-18 13,-12 28,-19 47,-19 18,0 34,7 47,20 14,13 20,29 20,47 0,10 -1,19 -5,27l-373 814c-4,7 -8,12 -11,16zm956 -789c-93,0 -173,33 -238,98 -66,66 -99,145 -99,238 0,94 33,173 99,239 65,65 145,98 238,98 93,0 173,-33 238,-98 66,-66 99,-145 99,-239 0,-93 -33,-172 -99,-238 -65,-65 -145,-98 -238,-98zm337 667c-95,94 -207,141 -337,141 -130,0 -241,-46 -333,-138 -92,-92 -139,-203 -139,-334 0,-130 47,-241 139,-333 92,-92 203,-138 333,-138 130,0 241,46 333,138 92,92 138,203 138,333l0 405c0,18 -6,34 -19,47 -14,13 -30,20 -48,20 -19,0 -34,-7 -48,-20 -13,-13 -19,-29 -19,-47l0 -74zm664 6c19,0 35,7 48,20 13,13 20,29 20,48 0,18 -7,34 -20,47 -13,13 -29,20 -48,20 -224,0 -336,-112 -336,-337l0 -471 -68 0c-18,0 -34,-7 -47,-20 -13,-13 -20,-29 -20,-48 0,-18 7,-34 20,-47 13,-13 29,-20 47,-20l68 0 0 -336c0,-19 6,-35 20,-48 13,-13 29,-20 47,-20 19,0 34,7 48,20 13,13 19,29 19,48l0 336 136 0c18,0 34,7 47,20 14,13 20,29 20,47 0,19 -6,35 -20,48 -13,13 -29,20 -47,20l-136 0 0 471c0,135 68,202 202,202zm622 -673c-93,0 -172,33 -238,98 -66,66 -98,145 -98,238 0,94 32,173 98,239 66,65 145,98 238,98 94,0 173,-33 239,-98 65,-66 98,-145 98,-239 0,-93 -33,-172 -98,-238 -66,-65 -145,-98 -239,-98zm337 667c-94,94 -206,141 -337,141 -130,0 -241,-46 -333,-138 -92,-92 -138,-203 -138,-334 0,-130 46,-241 138,-333 92,-92 203,-138 333,-138 131,0 242,46 334,138 92,92 138,203 138,333l0 405c0,18 -7,34 -20,47 -13,13 -29,20 -48,20 -18,0 -34,-7 -47,-20 -13,-13 -20,-29 -20,-47l0 -74zm269 -735c0,-18 7,-34 20,-47 13,-13 29,-20 48,-20 18,0 34,7 47,20 14,13 20,29 20,47l0 75c94,-95 207,-142 337,-142 66,0 126,11 181,34 10,4 19,10 28,17 13,14 19,30 19,48 0,19 -7,35 -20,48 -13,13 -29,20 -47,20 -11,0 -21,-2 -30,-7 -40,-17 -83,-25 -131,-25 -93,0 -173,33 -238,98 -66,66 -99,145 -99,238l0 405c0,18 -6,34 -20,47 -13,13 -29,20 -47,20 -19,0 -35,-7 -48,-20 -13,-13 -20,-29 -20,-47l0 -809zm-3578 2418c0,18 -6,34 -19,47 -125,100 -266,150 -424,150 -185,0 -344,-66 -476,-198 -131,-131 -197,-290 -197,-476 0,-185 66,-344 197,-476 132,-131 291,-197 476,-197 161,0 304,51 429,154 13,14 19,29 19,48 0,19 -6,34 -19,48 -14,13 -29,19 -48,19 -18,0 -35,-6 -48,-20 -95,-76 -205,-114 -333,-114 -148,0 -275,52 -380,158 -106,105 -158,232 -158,380 0,149 52,276 158,381 105,105 232,158 380,158 117,0 219,-32 308,-96l0 -308 -265 0c-19,0 -35,-6 -48,-20 -13,-13 -20,-29 -20,-47 0,-19 7,-35 20,-48 13,-13 29,-20 48,-20l334 0c18,0 34,7 47,20 13,13 19,29 19,48l0 409zm949 -342c-12,-65 -43,-121 -93,-171 -65,-65 -145,-98 -238,-98 -93,0 -172,33 -238,98 -49,50 -80,106 -92,171l661 0zm-72 310c19,0 35,6 48,20 13,13 20,29 20,47 0,19 -7,35 -20,48 -86,76 -189,114 -307,114 -130,0 -241,-46 -333,-138 -92,-92 -138,-204 -138,-334 0,-130 46,-241 138,-333 92,-92 203,-138 333,-138 130,0 242,46 334,138 91,92 138,203 138,333 0,19 -7,35 -20,48 -13,13 -29,20 -48,20l-734 0c12,64 43,121 92,171 66,65 145,98 238,98 84,0 157,-27 217,-80 13,-9 27,-14 42,-14zm347 -647c0,-18 7,-34 20,-47 13,-13 29,-20 48,-20 18,0 34,7 47,20 13,13 20,29 20,47l0 55c84,-81 185,-122 303,-122 121,0 224,43 309,129 86,85 129,188 129,309l0 438c0,18 -7,34 -20,47 -13,13 -29,20 -48,20 -18,0 -34,-7 -47,-20 -14,-13 -20,-29 -20,-47l0 -438c0,-84 -30,-155 -89,-214 -59,-60 -130,-89 -214,-89 -84,0 -155,29 -214,89 -59,59 -89,130 -89,214l0 438c0,18 -7,34 -20,47 -13,13 -29,20 -47,20 -19,0 -35,-7 -48,-20 -13,-13 -20,-29 -20,-47l0 -809zm1813 337c-13,-65 -44,-121 -93,-171 -65,-65 -145,-98 -238,-98 -93,0 -173,33 -238,98 -50,50 -81,106 -93,171l662 0zm-72 310c19,0 34,6 48,20 13,13 20,29 20,47 0,19 -7,35 -20,48 -87,76 -189,114 -307,114 -130,0 -242,-46 -333,-138 -92,-92 -139,-204 -139,-334 0,-130 47,-241 139,-333 91,-92 203,-138 333,-138 130,0 241,46 333,138 92,92 138,203 138,333 0,19 -6,35 -20,48 -13,13 -29,20 -47,20l-735 0c12,64 43,121 93,171 65,65 145,98 238,98 84,0 156,-27 217,-80 12,-9 26,-14 42,-14zm347 -647c0,-18 6,-34 20,-47 13,-13 29,-20 47,-20 19,0 34,7 48,20 13,13 19,29 19,47l0 75c95,-95 207,-142 337,-142 66,0 126,11 181,34 10,4 19,10 28,17 13,14 19,30 19,48 0,19 -6,35 -19,48 -14,13 -29,20 -48,20 -11,0 -21,-3 -29,-7 -40,-17 -84,-25 -132,-25 -93,0 -172,33 -238,98 -66,66 -99,145 -99,238l0 405c0,18 -6,34 -19,47 -14,13 -29,20 -48,20 -18,0 -34,-7 -47,-20 -14,-13 -20,-29 -20,-47l0 -809zm1279 68c-93,0 -172,33 -238,98 -66,66 -98,145 -98,238 0,94 32,173 98,239 66,65 145,98 238,98 94,0 173,-33 239,-98 65,-66 98,-145 98,-239 0,-93 -33,-172 -98,-238 -66,-65 -145,-98 -239,-98zm337 666c-94,95 -206,142 -337,142 -130,0 -241,-46 -333,-138 -92,-92 -138,-204 -138,-334 0,-130 46,-241 138,-333 92,-92 203,-138 333,-138 131,0 242,46 334,138 92,92 138,203 138,333l0 405c0,18 -7,34 -20,47 -13,13 -29,20 -48,20 -18,0 -34,-7 -47,-20 -13,-13 -20,-29 -20,-47l0 -75zm665 7c18,0 34,7 48,20 13,13 19,29 19,48 0,18 -6,34 -19,47 -14,13 -30,20 -48,20 -224,0 -337,-113 -337,-337l0 -471 -67 0c-19,0 -34,-7 -48,-20 -13,-13 -20,-29 -20,-48 0,-18 7,-34 20,-47 14,-13 29,-20 48,-20l67 0 0 -337c0,-18 7,-34 20,-47 13,-13 29,-20 48,-20 18,0 34,7 47,20 13,13 20,29 20,47l0 337 136 0c18,0 34,7 47,20 13,13 20,29 20,47 0,19 -7,35 -20,48 -13,13 -29,20 -47,20l-136 0 0 471c0,135 67,202 202,202zm1093 -337c0,130 -46,242 -138,334 -92,92 -203,138 -333,138 -130,0 -241,-46 -333,-138 -92,-92 -138,-204 -138,-334 0,-130 46,-241 138,-333 92,-92 203,-138 333,-138 130,0 241,46 333,138 92,92 138,203 138,333zm-471 -336c-93,0 -173,33 -238,98 -66,66 -99,145 -99,238 0,94 33,173 99,239 65,65 145,98 238,98 93,0 173,-33 238,-98 66,-66 99,-145 99,-239 0,-93 -33,-172 -99,-238 -65,-65 -145,-98 -238,-98zm606 -68c0,-18 7,-34 20,-47 13,-13 29,-20 47,-20 19,0 35,7 48,20 13,13 20,29 20,47l0 75c94,-95 206,-142 336,-142 66,0 126,11 181,34 10,4 20,10 28,17 13,14 19,30 19,48 0,19 -6,35 -19,48 -14,13 -29,20 -48,20 -11,0 -20,-3 -29,-7 -40,-17 -84,-25 -132,-25 -93,0 -172,33 -238,98 -66,66 -98,145 -98,238l0 405c0,18 -7,34 -20,47 -13,13 -29,20 -48,20 -18,0 -34,-7 -47,-20 -13,-13 -20,-29 -20,-47l0 -809z"/>
  </g>
  <g>
   <path class="fil1" d="M1388 1481c-46,109 -198,68 -202,-49 -2,-45 10,-93 35,-145 60,-115 194,-169 262,-259 52,-66 39,-152 -22,-208 -77,-69 -219,-65 -298,0 -40,34 -68,86 -84,156 -30,138 -237,102 -210,-60 134,-594 879,-414 876,31 0,52 -16,101 -45,147 -70,107 -243,204 -283,287 -25,51 -14,63 -29,100z"/>
   <circle class="fil1" cx="1298" cy="1744" r="145"/>
  </g>
 </g>
</svg>
